<?xml version="1.0" encoding="UTF-8"?>
<svg id="Livello_2" xmlns="http://www.w3.org/2000/svg" version="1.1" viewBox="0 0 512 512">
  <!-- Generator: Adobe Illustrator 30.3.0, SVG Export Plug-In . SVG Version: 2.1.3 Build 182)  -->
  <defs>
    <style>
      .st0 {
        fill: #fff;
      }

      .st1 {
        fill-rule: evenodd;
      }

      .st1, .st2 {
        fill: #1d75bd;
      }
    </style>
  </defs>
  <path class="st2" d="M450.48,24.12c11.05,0,21.65,4.36,29.47,12.13,7.82,7.77,12.21,18.3,12.21,29.29v385.92c0,10.99-4.39,21.52-12.21,29.29-7.81,7.77-18.41,12.13-29.47,12.13H62.25c-11.05,0-21.65-4.36-29.47-12.13-7.82-7.77-12.21-18.3-12.21-29.29V65.55c0-10.99,4.39-21.52,12.21-29.29,7.81-7.77,18.41-12.13,29.47-12.13h388.23M450.48,3.12H62.25c-16.72,0-32.44,6.48-44.27,18.24C6.11,33.16-.43,48.85-.43,65.55v385.92c0,16.7,6.54,32.39,18.4,44.19,11.83,11.76,27.55,18.24,44.27,18.24h388.23c16.72,0,32.44-6.48,44.27-18.24,11.86-11.79,18.4-27.48,18.4-44.18V65.55c0-16.7-6.54-32.39-18.4-44.19-11.83-11.76-27.55-18.24-44.27-18.24h0Z"/>
  <path class="st1" d="M478.87,61.74c0-6.83-2.71-13.38-7.54-18.21-4.83-4.83-11.38-7.54-18.21-7.54H59.6c-6.83,0-13.38,2.71-18.21,7.54-4.83,4.83-7.54,11.38-7.54,18.21v393.53c0,6.83,2.71,13.38,7.54,18.21,4.83,4.83,11.38,7.54,18.21,7.54h393.53c6.83,0,13.38-2.71,18.21-7.54,4.83-4.83,7.54-11.38,7.54-18.21V61.74"/>
  <path class="st0" d="M147.38,409.18V107.83h92.2c34.94,0,57.71,1.51,68.32,4.52,16.31,4.52,29.96,14.35,40.96,29.5,11,15.14,16.5,34.7,16.5,58.69,0,18.5-3.17,34.05-9.51,46.66-6.34,12.61-14.4,22.51-24.16,29.7-9.77,7.19-19.7,11.96-29.79,14.29-13.72,2.88-33.58,4.32-59.59,4.32h-37.46v113.67h-57.45ZM204.83,158.81v85.51h31.44c22.65,0,37.79-1.58,45.42-4.73,7.63-3.15,13.62-8.09,17.95-14.8,4.33-6.72,6.5-14.53,6.5-23.43,0-10.96-3.04-20.01-9.12-27.14-6.08-7.13-13.78-11.58-23.1-13.36-6.86-1.37-20.64-2.06-41.34-2.06h-27.76"/>
</svg>